<svg width="177" height="58" viewBox="0 0 177 58" fill="none" xmlns="http://www.w3.org/2000/svg">
<path d="M71.2811 37.553C70.1498 37.0458 69.3327 36.2848 68.7041 35.3337C68.0756 34.3826 67.7613 33.3046 67.6985 32.0364H70.6526C70.7154 33.1144 71.2183 34.0021 71.9725 34.6996C72.7267 35.3971 73.8581 35.7142 75.1151 35.7142C76.2465 35.7142 77.1264 35.4605 77.8178 35.0166C78.5092 34.5094 78.8863 33.8753 78.8863 32.9875C78.8863 32.3534 78.6978 31.8462 78.3207 31.4657C77.9435 31.0853 77.4407 30.8316 76.8122 30.6414C76.1837 30.4512 75.2409 30.2609 74.0466 30.0073H73.9209C72.7896 29.8171 71.7839 29.5634 70.9668 29.183C70.1498 28.8025 69.4584 28.2952 68.8927 27.5977C68.3899 26.9002 68.1385 25.9491 68.1385 24.8077C68.1385 23.7297 68.3899 22.7786 68.9555 21.9543C69.5212 21.13 70.2755 20.4959 71.2811 19.9886C72.2868 19.5447 73.4181 19.2911 74.6752 19.2911C75.9951 19.2911 77.1893 19.5447 78.1949 20.052C79.2635 20.5593 80.0805 21.1934 80.6462 22.0811C81.2747 22.9688 81.589 23.9834 81.589 25.0613H78.6349C78.5092 24.1102 78.0692 23.3493 77.3779 22.7786C76.6865 22.2079 75.7437 21.8909 74.6752 21.8909C73.6067 21.8909 72.7267 22.1445 72.0982 22.5884C71.4697 23.0322 71.1554 23.7297 71.1554 24.5541C71.1554 25.1882 71.344 25.632 71.7211 26.0125C72.0982 26.3295 72.601 26.6466 73.2296 26.8368C73.8581 27.027 74.738 27.2173 75.9322 27.4709C77.1264 27.6611 78.1321 27.9782 79.012 28.2952C79.892 28.6123 80.5834 29.183 81.149 29.8805C81.7147 30.578 81.9661 31.5291 81.9661 32.6705C81.9661 33.7485 81.6519 34.6996 81.0862 35.5873C80.5205 36.4751 79.7034 37.1092 78.6349 37.6164C77.5664 38.1237 76.4351 38.3139 75.1151 38.3139C73.6695 38.3774 72.3496 38.1237 71.2811 37.553Z" fill="#E60000"/>
<path d="M94.851 25.2516C95.7938 25.8222 96.548 26.5832 97.1137 27.6611C97.6794 28.7391 97.9308 29.9439 97.9308 31.4023C97.9308 32.7973 97.6794 34.0021 97.1137 35.0166C96.548 36.0946 95.7938 36.9189 94.851 37.4896C93.9082 38.0603 92.7769 38.3773 91.5826 38.3773C90.3884 38.3773 89.3828 38.1237 88.5657 37.6164C87.7486 37.1092 87.1829 36.4116 86.743 35.5873L87.1201 34.9532V43.5769H84.2917V24.6175H86.743L87.3086 27.9782L86.6801 27.3441C87.1829 26.5198 87.8115 25.8222 88.5657 25.2516C89.3828 24.7443 90.3256 24.4906 91.5198 24.4906C92.7768 24.4272 93.8454 24.7443 94.851 25.2516ZM89.0057 27.4075C88.3771 27.7879 87.9372 28.2952 87.6229 28.9927C87.3086 29.6902 87.1201 30.4511 87.1201 31.3389C87.1201 32.2266 87.3086 33.0509 87.6229 33.7484C87.9372 34.4459 88.44 34.9532 89.0057 35.3971C89.6342 35.7775 90.2627 35.9678 91.0798 35.9678C91.8341 35.9678 92.5254 35.7775 93.154 35.3971C93.7825 35.0166 94.2225 34.4459 94.5367 33.8119C94.851 33.1143 95.0396 32.3534 95.0396 31.4657C95.0396 30.578 94.851 29.817 94.5367 29.1195C94.2225 28.422 93.7825 27.9148 93.154 27.5343C92.5254 27.1538 91.8341 26.9636 91.0798 26.9636C90.2627 26.8368 89.5713 27.027 89.0057 27.4075Z" fill="#E60000"/>
<path d="M103.022 37.4896C101.953 36.9189 101.136 36.0946 100.571 35.0166C100.005 33.9387 99.6907 32.7339 99.6907 31.4023C99.6907 30.0073 100.005 28.8025 100.571 27.7245C101.136 26.6466 101.953 25.8857 103.022 25.315C104.09 24.7443 105.285 24.4272 106.605 24.4272C107.987 24.4272 109.182 24.7443 110.187 25.315C111.256 25.8857 112.073 26.71 112.638 27.7245C113.204 28.8025 113.518 30.0073 113.518 31.4023C113.518 32.7973 113.204 34.0021 112.638 35.0801C112.073 36.158 111.256 36.9189 110.187 37.553C109.119 38.1237 107.924 38.4408 106.605 38.4408C105.222 38.3773 104.028 38.0603 103.022 37.4896ZM108.679 35.3337C109.307 34.9532 109.747 34.446 110.061 33.7485C110.376 33.0509 110.564 32.29 110.564 31.4023C110.564 30.5146 110.376 29.7537 110.061 29.0561C109.747 28.3586 109.307 27.8514 108.679 27.4709C108.05 27.0904 107.359 26.9002 106.605 26.9002C105.85 26.9002 105.096 27.0904 104.53 27.4709C103.902 27.8514 103.462 28.3586 103.148 29.0561C102.833 29.7537 102.645 30.5146 102.645 31.4023C102.645 32.29 102.833 33.0509 103.148 33.7485C103.462 34.446 103.965 34.9532 104.53 35.3337C105.159 35.7141 105.85 35.9044 106.605 35.9044C107.359 35.9044 108.113 35.7141 108.679 35.3337Z" fill="#E60000"/>
<path d="M118.295 24.6175L118.798 27.9782L118.232 27.3441C118.61 26.5198 119.175 25.8223 119.804 25.3784C120.432 24.8711 121.375 24.6809 122.569 24.6809H123.198V27.3441H121.941C120.747 27.3441 119.929 27.7246 119.364 28.4855C118.861 29.2464 118.547 30.2609 118.547 31.4657V38.314H115.718V24.6175H118.295Z" fill="#E60000"/>
<path d="M125.083 20.7495H127.912V24.5541H131.18V27.0271H127.912V34.1289C127.912 34.6996 128.037 35.0801 128.226 35.2703C128.415 35.5239 128.792 35.5874 129.295 35.5874H131.494V38.1237H128.729C127.472 38.1237 126.529 37.8067 125.963 37.236C125.398 36.6653 125.083 35.7142 125.083 34.446V20.7495V20.7495Z" fill="#E60000"/>
<path d="M136.208 37.553C135.077 37.0458 134.26 36.2848 133.631 35.3337C133.003 34.3826 132.689 33.3046 132.626 32.0364H135.58C135.643 33.1144 136.145 34.0021 136.9 34.6996C137.654 35.3971 138.785 35.7142 140.042 35.7142C141.174 35.7142 142.054 35.4605 142.745 35.0166C143.436 34.5094 143.814 33.8753 143.814 32.9875C143.814 32.3534 143.625 31.8462 143.248 31.4657C142.871 31.0853 142.368 30.8316 141.739 30.6414C141.111 30.4512 140.168 30.2609 138.974 30.0073H138.848C137.717 29.8171 136.711 29.5634 135.894 29.183C135.077 28.8025 134.386 28.2952 133.82 27.5977C133.317 26.9002 133.066 25.9491 133.066 24.8077C133.066 23.7297 133.317 22.7786 133.883 21.9543C134.448 21.13 135.203 20.4959 136.208 19.9886C137.214 19.5447 138.345 19.2911 139.602 19.2911C140.922 19.2911 142.117 19.5447 143.122 20.052C144.191 20.5593 145.008 21.1934 145.573 22.0811C146.202 22.9688 146.516 23.9834 146.516 25.0613H143.562C143.436 24.1102 142.996 23.3493 142.305 22.7786C141.614 22.2079 140.671 21.8909 139.602 21.8909C138.534 21.8909 137.654 22.1445 137.025 22.5884C136.397 23.0322 136.083 23.7297 136.083 24.5541C136.083 25.1882 136.271 25.632 136.648 26.0125C137.025 26.3295 137.528 26.6466 138.157 26.8368C138.785 27.027 139.665 27.2173 140.859 27.4709C142.054 27.6611 143.059 27.9782 143.939 28.2952C144.819 28.6123 145.511 29.183 146.076 29.8805C146.642 30.578 146.893 31.5291 146.893 32.6705C146.893 33.7485 146.579 34.6996 146.013 35.5873C145.448 36.4751 144.631 37.1092 143.562 37.6164C142.494 38.1237 141.362 38.3139 140.042 38.3139C138.597 38.3774 137.34 38.1237 136.208 37.553Z" fill="#E60000"/>
<path d="M152.047 37.4896C150.979 36.9189 150.162 36.0946 149.596 35.0801C149.03 34.0021 148.716 32.7973 148.716 31.4023C148.716 30.0073 148.968 28.7391 149.533 27.7245C150.099 26.71 150.853 25.8857 151.859 25.315C152.864 24.7443 153.996 24.4272 155.316 24.4272C156.636 24.4272 157.767 24.6809 158.773 25.1882C159.778 25.6954 160.533 26.4564 161.098 27.4709C161.664 28.4855 161.978 29.6268 161.978 30.895C161.978 31.0853 161.978 31.2121 161.978 31.4023C161.978 31.5925 161.978 31.7828 161.915 31.973H151.733C151.733 32.0364 151.733 32.0364 151.733 32.0364V32.0998C151.796 32.8607 151.922 33.5582 152.236 34.1289C152.55 34.6996 152.99 35.1435 153.556 35.4605C154.121 35.7776 154.75 35.9678 155.504 35.9678C156.384 35.9678 157.138 35.7776 157.704 35.3337C158.333 34.8898 158.71 34.3191 158.898 33.5582H161.79C161.601 34.446 161.287 35.2703 160.721 35.9678C160.155 36.6653 159.464 37.236 158.647 37.6798C157.767 38.0603 156.824 38.3139 155.756 38.3139C154.31 38.3774 153.053 38.0603 152.047 37.4896ZM153.744 27.1539C153.242 27.4075 152.802 27.788 152.487 28.2952C152.173 28.8025 151.922 29.3098 151.859 29.9439H159.087C158.961 28.9293 158.584 28.105 157.956 27.5977C157.327 27.027 156.447 26.7734 155.441 26.7734C154.813 26.71 154.247 26.8368 153.744 27.1539Z" fill="#E60000"/>
<path d="M167.069 37.4896C166.001 36.9189 165.184 36.0946 164.618 35.0801C164.052 34.0021 163.738 32.7973 163.738 31.4023C163.738 30.0073 163.989 28.7391 164.555 27.7245C165.121 26.71 165.875 25.8857 166.881 25.315C167.886 24.7443 169.018 24.4272 170.338 24.4272C171.658 24.4272 172.789 24.6809 173.795 25.1882C174.8 25.6954 175.554 26.4564 176.12 27.4709C176.686 28.4855 177 29.6268 177 30.895C177 31.0853 177 31.2121 177 31.4023C177 31.5925 177 31.7828 176.937 31.973H166.755C166.755 32.0364 166.755 32.0364 166.755 32.0364V32.0998C166.818 32.8607 166.944 33.5582 167.258 34.1289C167.572 34.6996 168.012 35.1435 168.578 35.4605C169.143 35.7776 169.772 35.9678 170.526 35.9678C171.406 35.9678 172.16 35.7776 172.726 35.3337C173.355 34.8898 173.732 34.3191 173.92 33.5582H176.811C176.623 34.446 176.309 35.2703 175.743 35.9678C175.177 36.6653 174.486 37.236 173.669 37.6798C172.789 38.0603 171.846 38.3139 170.778 38.3139C169.332 38.3774 168.138 38.0603 167.069 37.4896ZM168.766 27.1539C168.263 27.4075 167.823 27.788 167.509 28.2952C167.195 28.8025 166.944 29.3098 166.881 29.9439H174.109C173.983 28.9293 173.606 28.105 172.977 27.5977C172.349 27.027 171.469 26.7734 170.463 26.7734C169.835 26.71 169.269 26.8368 168.766 27.1539Z" fill="#E60000"/>
<path d="M28.5982 57.7027C44.3925 57.7027 57.1963 44.7855 57.1963 28.8514C57.1963 12.9172 44.3925 0 28.5982 0C12.8038 0 0 12.9172 0 28.8514C0 44.7855 12.8038 57.7027 28.5982 57.7027Z" fill="#FF0101"/>
<path d="M40.9174 16.423C43.5556 16.423 45.6942 14.2654 45.6942 11.6039C45.6942 8.94239 43.5556 6.78479 40.9174 6.78479C38.2792 6.78479 36.1406 8.94239 36.1406 11.6039C36.1406 14.2654 38.2792 16.423 40.9174 16.423Z" fill="#020203"/>
<mask id="mask0_144725_215" style="mask-type:alpha" maskUnits="userSpaceOnUse" x="0" y="0" width="58" height="58">
<path d="M28.5982 57.7027C44.3925 57.7027 57.1963 44.7855 57.1963 28.8514C57.1963 12.9172 44.3925 0 28.5982 0C12.8038 0 0 12.9172 0 28.8514C0 44.7855 12.8038 57.7027 28.5982 57.7027Z" fill="#FF0101"/>
</mask>
<g mask="url(#mask0_144725_215)">
<path d="M39.5346 29.422C39.8489 29.9293 40.4146 30.2463 41.0431 30.2463C41.3574 30.2463 41.6716 30.1829 41.9859 29.9927L50.5968 24.7931C51.4767 24.2858 51.7281 23.1445 51.2253 22.3201C50.7225 21.4324 49.5911 21.1788 48.774 21.686L41.6088 25.9979L38.1519 19.2131C37.2091 18.2619 36.1406 17.3108 35.0721 16.4865L24.827 11.2869C24.1356 10.9698 23.3814 11.0332 22.8157 11.5405L14.2677 19.3399C13.5134 20.0374 13.4506 21.1788 14.142 21.8763C14.8334 22.6372 15.9647 22.7006 16.6561 22.0031L24.387 15.028L29.7295 17.7546L20.553 32.0852L-0.377096 57.0686C-1.19419 58.0197 -1.13133 59.5415 -0.125684 60.3659C0.817112 61.1902 2.32559 61.1268 3.14268 60.1122L23.4442 36.4605L32.1808 38.4896L26.2098 47.9376C25.5812 49.079 25.9584 50.474 27.0897 51.1081C28.0954 51.6788 29.4153 51.4251 30.1067 50.4106L37.7747 38.1725C38.2147 37.5384 38.2776 36.7141 38.0261 36.0166C37.7119 35.3191 37.1462 34.8118 36.392 34.685L29.6667 33.0998L35.7634 23.4615L39.5346 29.422Z" fill="#020203"/>
</g>
</svg>
